<svg width="1064" height="1061" viewBox="0 0 1064 1061" fill="none" xmlns="http://www.w3.org/2000/svg">
<g opacity="0.25">
<g filter="url(#filter0_d_525_5883)">
<path d="M130.93 673.446C129.936 661.792 129.303 649.957 129.303 638.031C129.303 412.896 312.43 229.771 537.568 229.771C667.572 229.771 783.574 290.933 858.379 385.974L788.724 440.722C730.181 366.369 639.566 318.397 537.568 318.397C361.035 318.397 217.931 461.501 217.931 638.031C217.931 814.562 361.035 957.666 537.568 957.666C639.566 957.666 735.587 902.956 794.13 828.603L1013.01 996.685C904.599 1134.46 726.477 1229.87 537.658 1229.87C210.793 1229.87 -54.1852 964.893 -54.1852 638.031C-54.1852 311.17 210.793 46.1932 537.658 46.1932C726.567 46.1932 894.607 134.73 1002.93 272.503L933.093 327.341C840.852 210.166 697.928 134.73 537.658 134.73C321.194 134.73 91.6299 282.35 91.6299 515.887C91.4492 582.47 107.259 631.075 130.93 673.446Z" fill="url(#paint0_linear_525_5883)"/>
</g>
<g opacity="0.9" filter="url(#filter1_b_525_5883)">
<path d="M107.267 640.304C106.273 628.649 105.641 616.814 105.641 604.889C105.641 379.754 288.768 196.628 513.905 196.628C643.91 196.628 759.911 257.79 834.716 352.832L765.061 407.579C706.518 333.227 615.903 285.255 513.905 285.255C337.373 285.255 194.268 428.358 194.268 604.889C194.268 781.419 337.373 924.523 513.905 924.523C615.903 924.523 706.518 876.551 765.061 802.198L979.266 970.417C870.854 1108.19 702.814 1196.73 513.995 1196.73C187.131 1196.73 -77.8477 931.751 -77.8477 604.889C-77.8477 278.027 187.131 13.0508 513.995 13.0508C702.904 13.0508 870.944 101.587 979.266 239.36L909.431 294.199C817.189 177.024 674.265 101.587 513.995 101.587C297.531 101.587 67.9674 249.208 67.9674 482.745C67.7867 549.328 83.5969 597.933 107.267 640.304Z" fill="url(#paint1_radial_525_5883)"/>
<path d="M107.267 640.304C106.273 628.649 105.641 616.814 105.641 604.889C105.641 379.754 288.768 196.628 513.905 196.628C643.91 196.628 759.911 257.79 834.716 352.832L765.061 407.579C706.518 333.227 615.903 285.255 513.905 285.255C337.373 285.255 194.268 428.358 194.268 604.889C194.268 781.419 337.373 924.523 513.905 924.523C615.903 924.523 706.518 876.551 765.061 802.198L979.266 970.417C870.854 1108.19 702.814 1196.73 513.995 1196.73C187.131 1196.73 -77.8477 931.751 -77.8477 604.889C-77.8477 278.027 187.131 13.0508 513.995 13.0508C702.904 13.0508 870.944 101.587 979.266 239.36L909.431 294.199C817.189 177.024 674.265 101.587 513.995 101.587C297.531 101.587 67.9674 249.208 67.9674 482.745C67.7867 549.328 83.5969 597.933 107.267 640.304Z" fill="url(#paint2_radial_525_5883)"/>
<path d="M107.267 640.304C106.273 628.649 105.641 616.814 105.641 604.889C105.641 379.754 288.768 196.628 513.905 196.628C643.91 196.628 759.911 257.79 834.716 352.832L765.061 407.579C706.518 333.227 615.903 285.255 513.905 285.255C337.373 285.255 194.268 428.358 194.268 604.889C194.268 781.419 337.373 924.523 513.905 924.523C615.903 924.523 706.518 876.551 765.061 802.198L979.266 970.417C870.854 1108.19 702.814 1196.73 513.995 1196.73C187.131 1196.73 -77.8477 931.751 -77.8477 604.889C-77.8477 278.027 187.131 13.0508 513.995 13.0508C702.904 13.0508 870.944 101.587 979.266 239.36L909.431 294.199C817.189 177.024 674.265 101.587 513.995 101.587C297.531 101.587 67.9674 249.208 67.9674 482.745C67.7867 549.328 83.5969 597.933 107.267 640.304Z" fill="url(#paint3_radial_525_5883)" fill-opacity="0.3"/>
<path d="M107.267 640.304C106.273 628.649 105.641 616.814 105.641 604.889C105.641 379.754 288.768 196.628 513.905 196.628C643.91 196.628 759.911 257.79 834.716 352.832L765.061 407.579C706.518 333.227 615.903 285.255 513.905 285.255C337.373 285.255 194.268 428.358 194.268 604.889C194.268 781.419 337.373 924.523 513.905 924.523C615.903 924.523 706.518 876.551 765.061 802.198L979.266 970.417C870.854 1108.19 702.814 1196.73 513.995 1196.73C187.131 1196.73 -77.8477 931.751 -77.8477 604.889C-77.8477 278.027 187.131 13.0508 513.995 13.0508C702.904 13.0508 870.944 101.587 979.266 239.36L909.431 294.199C817.189 177.024 674.265 101.587 513.995 101.587C297.531 101.587 67.9674 249.208 67.9674 482.745C67.7867 549.328 83.5969 597.933 107.267 640.304Z" fill="url(#paint4_linear_525_5883)"/>
<path d="M107.267 640.304C106.273 628.649 105.641 616.814 105.641 604.889C105.641 379.754 288.768 196.628 513.905 196.628C643.91 196.628 759.911 257.79 834.716 352.832L765.061 407.579C706.518 333.227 615.903 285.255 513.905 285.255C337.373 285.255 194.268 428.358 194.268 604.889C194.268 781.419 337.373 924.523 513.905 924.523C615.903 924.523 706.518 876.551 765.061 802.198L979.266 970.417C870.854 1108.19 702.814 1196.73 513.995 1196.73C187.131 1196.73 -77.8477 931.751 -77.8477 604.889C-77.8477 278.027 187.131 13.0508 513.995 13.0508C702.904 13.0508 870.944 101.587 979.266 239.36L909.431 294.199C817.189 177.024 674.265 101.587 513.995 101.587C297.531 101.587 67.9674 249.208 67.9674 482.745C67.7867 549.328 83.5969 597.933 107.267 640.304Z" fill="url(#paint5_radial_525_5883)"/>
</g>
<path d="M106.83 640.547L107.765 640.261C106.772 628.617 106.141 616.797 106.141 604.889C106.141 380.03 289.044 197.128 513.905 197.128C643.57 197.128 759.289 258.046 834.013 352.748L765.144 406.878C706.502 332.635 615.885 284.755 513.905 284.755C337.097 284.755 193.768 428.082 193.768 604.889C193.768 781.696 337.097 925.023 513.905 925.023C615.885 925.023 706.502 877.143 765.145 802.9L978.564 970.501C870.231 1107.94 702.474 1196.23 513.995 1196.23C187.407 1196.23 -77.3477 931.474 -77.3477 604.889C-77.3477 278.303 187.407 13.5508 513.995 13.5508C702.565 13.5508 870.322 101.843 978.564 239.276L909.514 293.497C817.173 176.432 674.247 101.087 513.995 101.087C405.657 101.087 294.04 138.027 209.499 204.196C124.952 270.37 67.4678 365.796 67.4674 482.744C67.2865 549.418 83.1212 598.106 106.83 640.547Z" stroke="url(#paint6_radial_525_5883)"/>
<path d="M106.83 640.547L107.765 640.261C106.772 628.617 106.141 616.797 106.141 604.889C106.141 380.03 289.044 197.128 513.905 197.128C643.57 197.128 759.289 258.046 834.013 352.748L765.144 406.878C706.502 332.635 615.885 284.755 513.905 284.755C337.097 284.755 193.768 428.082 193.768 604.889C193.768 781.696 337.097 925.023 513.905 925.023C615.885 925.023 706.502 877.143 765.145 802.9L978.564 970.501C870.231 1107.94 702.474 1196.23 513.995 1196.23C187.407 1196.23 -77.3477 931.474 -77.3477 604.889C-77.3477 278.303 187.407 13.5508 513.995 13.5508C702.565 13.5508 870.322 101.843 978.564 239.276L909.514 293.497C817.173 176.432 674.247 101.087 513.995 101.087C405.657 101.087 294.04 138.027 209.499 204.196C124.952 270.37 67.4678 365.796 67.4674 482.744C67.2865 549.418 83.1212 598.106 106.83 640.547Z" stroke="url(#paint7_radial_525_5883)"/>
<path d="M106.83 640.547L107.765 640.261C106.772 628.617 106.141 616.797 106.141 604.889C106.141 380.03 289.044 197.128 513.905 197.128C643.57 197.128 759.289 258.046 834.013 352.748L765.144 406.878C706.502 332.635 615.885 284.755 513.905 284.755C337.097 284.755 193.768 428.082 193.768 604.889C193.768 781.696 337.097 925.023 513.905 925.023C615.885 925.023 706.502 877.143 765.145 802.9L978.564 970.501C870.231 1107.94 702.474 1196.23 513.995 1196.23C187.407 1196.23 -77.3477 931.474 -77.3477 604.889C-77.3477 278.303 187.407 13.5508 513.995 13.5508C702.565 13.5508 870.322 101.843 978.564 239.276L909.514 293.497C817.173 176.432 674.247 101.087 513.995 101.087C405.657 101.087 294.04 138.027 209.499 204.196C124.952 270.37 67.4678 365.796 67.4674 482.744C67.2865 549.418 83.1212 598.106 106.83 640.547Z" stroke="url(#paint8_linear_525_5883)"/>
<path d="M106.83 640.547L107.765 640.261C106.772 628.617 106.141 616.797 106.141 604.889C106.141 380.03 289.044 197.128 513.905 197.128C643.57 197.128 759.289 258.046 834.013 352.748L765.144 406.878C706.502 332.635 615.885 284.755 513.905 284.755C337.097 284.755 193.768 428.082 193.768 604.889C193.768 781.696 337.097 925.023 513.905 925.023C615.885 925.023 706.502 877.143 765.145 802.9L978.564 970.501C870.231 1107.94 702.474 1196.23 513.995 1196.23C187.407 1196.23 -77.3477 931.474 -77.3477 604.889C-77.3477 278.303 187.407 13.5508 513.995 13.5508C702.565 13.5508 870.322 101.843 978.564 239.276L909.514 293.497C817.173 176.432 674.247 101.087 513.995 101.087C405.657 101.087 294.04 138.027 209.499 204.196C124.952 270.37 67.4678 365.796 67.4674 482.744C67.2865 549.418 83.1212 598.106 106.83 640.547Z" stroke="url(#paint9_radial_525_5883)"/>
<path d="M106.83 640.547L107.765 640.261C106.772 628.617 106.141 616.797 106.141 604.889C106.141 380.03 289.044 197.128 513.905 197.128C643.57 197.128 759.289 258.046 834.013 352.748L765.144 406.878C706.502 332.635 615.885 284.755 513.905 284.755C337.097 284.755 193.768 428.082 193.768 604.889C193.768 781.696 337.097 925.023 513.905 925.023C615.885 925.023 706.502 877.143 765.145 802.9L978.564 970.501C870.231 1107.94 702.474 1196.23 513.995 1196.23C187.407 1196.23 -77.3477 931.474 -77.3477 604.889C-77.3477 278.303 187.407 13.5508 513.995 13.5508C702.565 13.5508 870.322 101.843 978.564 239.276L909.514 293.497C817.173 176.432 674.247 101.087 513.995 101.087C405.657 101.087 294.04 138.027 209.499 204.196C124.952 270.37 67.4678 365.796 67.4674 482.744C67.2865 549.418 83.1212 598.106 106.83 640.547Z" stroke="url(#paint10_radial_525_5883)"/>
<path d="M106.83 640.547L107.765 640.261C106.772 628.617 106.141 616.797 106.141 604.889C106.141 380.03 289.044 197.128 513.905 197.128C643.57 197.128 759.289 258.046 834.013 352.748L765.144 406.878C706.502 332.635 615.885 284.755 513.905 284.755C337.097 284.755 193.768 428.082 193.768 604.889C193.768 781.696 337.097 925.023 513.905 925.023C615.885 925.023 706.502 877.143 765.145 802.9L978.564 970.501C870.231 1107.94 702.474 1196.23 513.995 1196.23C187.407 1196.23 -77.3477 931.474 -77.3477 604.889C-77.3477 278.303 187.407 13.5508 513.995 13.5508C702.565 13.5508 870.322 101.843 978.564 239.276L909.514 293.497C817.173 176.432 674.247 101.087 513.995 101.087C405.657 101.087 294.04 138.027 209.499 204.196C124.952 270.37 67.4678 365.796 67.4674 482.744C67.2865 549.418 83.1212 598.106 106.83 640.547Z" stroke="url(#paint11_linear_525_5883)"/>
<g filter="url(#filter2_f_525_5883)">
<path d="M106.83 640.547L107.765 640.261C106.772 628.617 106.141 616.797 106.141 604.889C106.141 380.03 289.044 197.128 513.905 197.128C643.57 197.128 759.289 258.046 834.013 352.748L765.144 406.878C706.502 332.635 615.885 284.755 513.905 284.755C337.097 284.755 193.768 428.082 193.768 604.889C193.768 781.696 337.097 925.023 513.905 925.023C615.885 925.023 706.502 877.143 765.145 802.9L978.564 970.501C870.231 1107.94 702.474 1196.23 513.995 1196.23C187.407 1196.23 -77.3477 931.474 -77.3477 604.889C-77.3477 278.303 187.407 13.5508 513.995 13.5508C702.565 13.5508 870.322 101.843 978.564 239.276L909.514 293.497C817.173 176.432 674.247 101.087 513.995 101.087C405.657 101.087 294.04 138.027 209.499 204.196C124.952 270.37 67.4678 365.796 67.4674 482.744C67.2865 549.418 83.1212 598.106 106.83 640.547Z" stroke="url(#paint12_radial_525_5883)"/>
<path d="M106.83 640.547L107.765 640.261C106.772 628.617 106.141 616.797 106.141 604.889C106.141 380.03 289.044 197.128 513.905 197.128C643.57 197.128 759.289 258.046 834.013 352.748L765.144 406.878C706.502 332.635 615.885 284.755 513.905 284.755C337.097 284.755 193.768 428.082 193.768 604.889C193.768 781.696 337.097 925.023 513.905 925.023C615.885 925.023 706.502 877.143 765.145 802.9L978.564 970.501C870.231 1107.94 702.474 1196.23 513.995 1196.23C187.407 1196.23 -77.3477 931.474 -77.3477 604.889C-77.3477 278.303 187.407 13.5508 513.995 13.5508C702.565 13.5508 870.322 101.843 978.564 239.276L909.514 293.497C817.173 176.432 674.247 101.087 513.995 101.087C405.657 101.087 294.04 138.027 209.499 204.196C124.952 270.37 67.4678 365.796 67.4674 482.744C67.2865 549.418 83.1212 598.106 106.83 640.547Z" stroke="url(#paint13_radial_525_5883)"/>
<path d="M106.83 640.547L107.765 640.261C106.772 628.617 106.141 616.797 106.141 604.889C106.141 380.03 289.044 197.128 513.905 197.128C643.57 197.128 759.289 258.046 834.013 352.748L765.144 406.878C706.502 332.635 615.885 284.755 513.905 284.755C337.097 284.755 193.768 428.082 193.768 604.889C193.768 781.696 337.097 925.023 513.905 925.023C615.885 925.023 706.502 877.143 765.145 802.9L978.564 970.501C870.231 1107.94 702.474 1196.23 513.995 1196.23C187.407 1196.23 -77.3477 931.474 -77.3477 604.889C-77.3477 278.303 187.407 13.5508 513.995 13.5508C702.565 13.5508 870.322 101.843 978.564 239.276L909.514 293.497C817.173 176.432 674.247 101.087 513.995 101.087C405.657 101.087 294.04 138.027 209.499 204.196C124.952 270.37 67.4678 365.796 67.4674 482.744C67.2865 549.418 83.1212 598.106 106.83 640.547Z" stroke="url(#paint14_linear_525_5883)"/>
</g>
<g filter="url(#filter3_f_525_5883)">
<path d="M106.83 640.547L107.765 640.261C106.772 628.617 106.141 616.797 106.141 604.889C106.141 380.03 289.044 197.128 513.905 197.128C643.57 197.128 759.289 258.046 834.013 352.748L765.144 406.878C706.502 332.635 615.885 284.755 513.905 284.755C337.097 284.755 193.768 428.082 193.768 604.889C193.768 781.696 337.097 925.023 513.905 925.023C615.885 925.023 706.502 877.143 765.145 802.9L978.564 970.501C870.231 1107.94 702.474 1196.23 513.995 1196.23C187.407 1196.23 -77.3477 931.474 -77.3477 604.889C-77.3477 278.303 187.407 13.5508 513.995 13.5508C702.565 13.5508 870.322 101.843 978.564 239.276L909.514 293.497C817.173 176.432 674.247 101.087 513.995 101.087C405.657 101.087 294.04 138.027 209.499 204.196C124.952 270.37 67.4678 365.796 67.4674 482.744C67.2865 549.418 83.1212 598.106 106.83 640.547Z" stroke="url(#paint15_radial_525_5883)"/>
<path d="M106.83 640.547L107.765 640.261C106.772 628.617 106.141 616.797 106.141 604.889C106.141 380.03 289.044 197.128 513.905 197.128C643.57 197.128 759.289 258.046 834.013 352.748L765.144 406.878C706.502 332.635 615.885 284.755 513.905 284.755C337.097 284.755 193.768 428.082 193.768 604.889C193.768 781.696 337.097 925.023 513.905 925.023C615.885 925.023 706.502 877.143 765.145 802.9L978.564 970.501C870.231 1107.94 702.474 1196.23 513.995 1196.23C187.407 1196.23 -77.3477 931.474 -77.3477 604.889C-77.3477 278.303 187.407 13.5508 513.995 13.5508C702.565 13.5508 870.322 101.843 978.564 239.276L909.514 293.497C817.173 176.432 674.247 101.087 513.995 101.087C405.657 101.087 294.04 138.027 209.499 204.196C124.952 270.37 67.4678 365.796 67.4674 482.744C67.2865 549.418 83.1212 598.106 106.83 640.547Z" stroke="url(#paint16_radial_525_5883)"/>
<path d="M106.83 640.547L107.765 640.261C106.772 628.617 106.141 616.797 106.141 604.889C106.141 380.03 289.044 197.128 513.905 197.128C643.57 197.128 759.289 258.046 834.013 352.748L765.144 406.878C706.502 332.635 615.885 284.755 513.905 284.755C337.097 284.755 193.768 428.082 193.768 604.889C193.768 781.696 337.097 925.023 513.905 925.023C615.885 925.023 706.502 877.143 765.145 802.9L978.564 970.501C870.231 1107.94 702.474 1196.23 513.995 1196.23C187.407 1196.23 -77.3477 931.474 -77.3477 604.889C-77.3477 278.303 187.407 13.5508 513.995 13.5508C702.565 13.5508 870.322 101.843 978.564 239.276L909.514 293.497C817.173 176.432 674.247 101.087 513.995 101.087C405.657 101.087 294.04 138.027 209.499 204.196C124.952 270.37 67.4678 365.796 67.4674 482.744C67.2865 549.418 83.1212 598.106 106.83 640.547Z" stroke="url(#paint17_linear_525_5883)"/>
</g>
<g filter="url(#filter4_f_525_5883)">
<path d="M106.83 640.547L107.765 640.261C106.772 628.617 106.141 616.797 106.141 604.889C106.141 380.03 289.044 197.128 513.905 197.128C643.57 197.128 759.289 258.046 834.013 352.748L765.144 406.878C706.502 332.635 615.885 284.755 513.905 284.755C337.097 284.755 193.768 428.082 193.768 604.889C193.768 781.696 337.097 925.023 513.905 925.023C615.885 925.023 706.502 877.143 765.145 802.9L978.564 970.501C870.231 1107.94 702.474 1196.23 513.995 1196.23C187.407 1196.23 -77.3477 931.474 -77.3477 604.889C-77.3477 278.303 187.407 13.5508 513.995 13.5508C702.565 13.5508 870.322 101.843 978.564 239.276L909.514 293.497C817.173 176.432 674.247 101.087 513.995 101.087C405.657 101.087 294.04 138.027 209.499 204.196C124.952 270.37 67.4678 365.796 67.4674 482.744C67.2865 549.418 83.1212 598.106 106.83 640.547Z" stroke="url(#paint18_radial_525_5883)"/>
<path d="M106.83 640.547L107.765 640.261C106.772 628.617 106.141 616.797 106.141 604.889C106.141 380.03 289.044 197.128 513.905 197.128C643.57 197.128 759.289 258.046 834.013 352.748L765.144 406.878C706.502 332.635 615.885 284.755 513.905 284.755C337.097 284.755 193.768 428.082 193.768 604.889C193.768 781.696 337.097 925.023 513.905 925.023C615.885 925.023 706.502 877.143 765.145 802.9L978.564 970.501C870.231 1107.94 702.474 1196.23 513.995 1196.23C187.407 1196.23 -77.3477 931.474 -77.3477 604.889C-77.3477 278.303 187.407 13.5508 513.995 13.5508C702.565 13.5508 870.322 101.843 978.564 239.276L909.514 293.497C817.173 176.432 674.247 101.087 513.995 101.087C405.657 101.087 294.04 138.027 209.499 204.196C124.952 270.37 67.4678 365.796 67.4674 482.744C67.2865 549.418 83.1212 598.106 106.83 640.547Z" stroke="url(#paint19_radial_525_5883)"/>
<path d="M106.83 640.547L107.765 640.261C106.772 628.617 106.141 616.797 106.141 604.889C106.141 380.03 289.044 197.128 513.905 197.128C643.57 197.128 759.289 258.046 834.013 352.748L765.144 406.878C706.502 332.635 615.885 284.755 513.905 284.755C337.097 284.755 193.768 428.082 193.768 604.889C193.768 781.696 337.097 925.023 513.905 925.023C615.885 925.023 706.502 877.143 765.145 802.9L978.564 970.501C870.231 1107.94 702.474 1196.23 513.995 1196.23C187.407 1196.23 -77.3477 931.474 -77.3477 604.889C-77.3477 278.303 187.407 13.5508 513.995 13.5508C702.565 13.5508 870.322 101.843 978.564 239.276L909.514 293.497C817.173 176.432 674.247 101.087 513.995 101.087C405.657 101.087 294.04 138.027 209.499 204.196C124.952 270.37 67.4678 365.796 67.4674 482.744C67.2865 549.418 83.1212 598.106 106.83 640.547Z" stroke="url(#paint20_linear_525_5883)"/>
</g>
</g>
<defs>
<filter id="filter0_d_525_5883" x="-104.185" y="0.193176" width="1167.2" height="1283.68" filterUnits="userSpaceOnUse" color-interpolation-filters="sRGB">
<feFlood flood-opacity="0" result="BackgroundImageFix"/>
<feColorMatrix in="SourceAlpha" type="matrix" values="0 0 0 0 0 0 0 0 0 0 0 0 0 0 0 0 0 0 127 0" result="hardAlpha"/>
<feOffset dy="4"/>
<feGaussianBlur stdDeviation="25"/>
<feColorMatrix type="matrix" values="0 0 0 0 0 0 0 0 0 0 0 0 0 0 0 0 0 0 0.1 0"/>
<feBlend mode="normal" in2="BackgroundImageFix" result="effect1_dropShadow_525_5883"/>
<feBlend mode="normal" in="SourceGraphic" in2="effect1_dropShadow_525_5883" result="shape"/>
</filter>
<filter id="filter1_b_525_5883" x="-79.8477" y="11.0508" width="1061.11" height="1187.68" filterUnits="userSpaceOnUse" color-interpolation-filters="sRGB">
<feFlood flood-opacity="0" result="BackgroundImageFix"/>
<feGaussianBlur in="BackgroundImage" stdDeviation="1"/>
<feComposite in2="SourceAlpha" operator="in" result="effect1_backgroundBlur_525_5883"/>
<feBlend mode="normal" in="SourceGraphic" in2="effect1_backgroundBlur_525_5883" result="shape"/>
</filter>
<filter id="filter2_f_525_5883" x="-82.8477" y="8.05078" width="1067.11" height="1193.68" filterUnits="userSpaceOnUse" color-interpolation-filters="sRGB">
<feFlood flood-opacity="0" result="BackgroundImageFix"/>
<feBlend mode="normal" in="SourceGraphic" in2="BackgroundImageFix" result="shape"/>
<feGaussianBlur stdDeviation="2.5" result="effect1_foregroundBlur_525_5883"/>
</filter>
<filter id="filter3_f_525_5883" x="-82.8477" y="8.05078" width="1067.11" height="1193.68" filterUnits="userSpaceOnUse" color-interpolation-filters="sRGB">
<feFlood flood-opacity="0" result="BackgroundImageFix"/>
<feBlend mode="normal" in="SourceGraphic" in2="BackgroundImageFix" result="shape"/>
<feGaussianBlur stdDeviation="2.5" result="effect1_foregroundBlur_525_5883"/>
</filter>
<filter id="filter4_f_525_5883" x="-82.8477" y="8.05078" width="1067.11" height="1193.68" filterUnits="userSpaceOnUse" color-interpolation-filters="sRGB">
<feFlood flood-opacity="0" result="BackgroundImageFix"/>
<feBlend mode="normal" in="SourceGraphic" in2="BackgroundImageFix" result="shape"/>
<feGaussianBlur stdDeviation="2.5" result="effect1_foregroundBlur_525_5883"/>
</filter>
<linearGradient id="paint0_linear_525_5883" x1="872.217" y1="1189.62" x2="198.57" y2="100.913" gradientUnits="userSpaceOnUse">
<stop stop-color="#003E74" stop-opacity="0.15"/>
<stop offset="1" stop-color="#003E74" stop-opacity="0.3"/>
</linearGradient>
<radialGradient id="paint1_radial_525_5883" cx="0" cy="0" r="1" gradientUnits="userSpaceOnUse" gradientTransform="translate(26.269 1035.75) rotate(-51.1133) scale(574.815 513.536)">
<stop stop-color="#003E74" stop-opacity="0.5"/>
<stop offset="1" stop-color="#003E74" stop-opacity="0"/>
</radialGradient>
<radialGradient id="paint2_radial_525_5883" cx="0" cy="0" r="1" gradientUnits="userSpaceOnUse" gradientTransform="translate(330.337 41.459) rotate(44.7536) scale(554.801 495.705)">
<stop stop-color="#00B5EC" stop-opacity="0.73"/>
<stop offset="1" stop-color="#003E74" stop-opacity="0"/>
</radialGradient>
<radialGradient id="paint3_radial_525_5883" cx="0" cy="0" r="1" gradientUnits="userSpaceOnUse" gradientTransform="translate(450.709 604.889) rotate(90) scale(591.838 528.557)">
<stop stop-color="#00B5EC"/>
<stop offset="1" stop-color="#00B5EC" stop-opacity="0"/>
</radialGradient>
<linearGradient id="paint4_linear_525_5883" x1="979.884" y1="974.196" x2="809.385" y2="604.947" gradientUnits="userSpaceOnUse">
<stop stop-color="#00B5EC" stop-opacity="0.09"/>
<stop offset="1" stop-color="#00B5EC" stop-opacity="0"/>
</linearGradient>
<radialGradient id="paint5_radial_525_5883" cx="0" cy="0" r="1" gradientUnits="userSpaceOnUse" gradientTransform="translate(979.884 968.278) rotate(-157.261) scale(474.656 424.228)">
<stop stop-color="#00B5EC" stop-opacity="0.31"/>
<stop offset="1" stop-color="#00B5EC" stop-opacity="0"/>
</radialGradient>
<radialGradient id="paint6_radial_525_5883" cx="0" cy="0" r="1" gradientUnits="userSpaceOnUse" gradientTransform="translate(500.71 326.725) rotate(-163.126) scale(464.878 415.513)">
<stop stop-color="#003865"/>
<stop offset="1" stop-color="#00B5EC" stop-opacity="0"/>
</radialGradient>
<radialGradient id="paint7_radial_525_5883" cx="0" cy="0" r="1" gradientUnits="userSpaceOnUse" gradientTransform="translate(837.906 661.705) rotate(119.898) scale(562.542 502.506)">
<stop stop-color="#003865"/>
<stop offset="1" stop-color="#00B5EC" stop-opacity="0"/>
</radialGradient>
<linearGradient id="paint8_linear_525_5883" x1="-38.8039" y1="990.767" x2="255.833" y2="877.223" gradientUnits="userSpaceOnUse">
<stop stop-color="#00B5EC" stop-opacity="0.54"/>
<stop offset="1" stop-color="#00B5EC" stop-opacity="0"/>
</linearGradient>
<radialGradient id="paint9_radial_525_5883" cx="0" cy="0" r="1" gradientUnits="userSpaceOnUse" gradientTransform="translate(500.71 326.725) rotate(-163.126) scale(464.878 415.513)">
<stop stop-color="#003865"/>
<stop offset="1" stop-color="#00B5EC" stop-opacity="0"/>
</radialGradient>
<radialGradient id="paint10_radial_525_5883" cx="0" cy="0" r="1" gradientUnits="userSpaceOnUse" gradientTransform="translate(837.906 661.705) rotate(119.898) scale(562.542 502.506)">
<stop stop-color="#003865"/>
<stop offset="1" stop-color="#00B5EC" stop-opacity="0"/>
</radialGradient>
<linearGradient id="paint11_linear_525_5883" x1="-38.8039" y1="990.767" x2="255.833" y2="877.223" gradientUnits="userSpaceOnUse">
<stop stop-color="#00B5EC" stop-opacity="0.54"/>
<stop offset="1" stop-color="#00B5EC" stop-opacity="0"/>
</linearGradient>
<radialGradient id="paint12_radial_525_5883" cx="0" cy="0" r="1" gradientUnits="userSpaceOnUse" gradientTransform="translate(500.71 326.725) rotate(-163.126) scale(464.878 415.513)">
<stop stop-color="#003865"/>
<stop offset="1" stop-color="#00B5EC" stop-opacity="0"/>
</radialGradient>
<radialGradient id="paint13_radial_525_5883" cx="0" cy="0" r="1" gradientUnits="userSpaceOnUse" gradientTransform="translate(837.906 661.705) rotate(119.898) scale(562.542 502.506)">
<stop stop-color="#003865"/>
<stop offset="1" stop-color="#00B5EC" stop-opacity="0"/>
</radialGradient>
<linearGradient id="paint14_linear_525_5883" x1="-9.22526" y1="1046.4" x2="255.868" y2="877.243" gradientUnits="userSpaceOnUse">
<stop stop-color="#003865" stop-opacity="0.54"/>
<stop offset="1" stop-color="#00B5EC" stop-opacity="0"/>
</linearGradient>
<radialGradient id="paint15_radial_525_5883" cx="0" cy="0" r="1" gradientUnits="userSpaceOnUse" gradientTransform="translate(500.71 326.725) rotate(-163.126) scale(464.878 415.513)">
<stop stop-color="#003865"/>
<stop offset="1" stop-color="#00B5EC" stop-opacity="0"/>
</radialGradient>
<radialGradient id="paint16_radial_525_5883" cx="0" cy="0" r="1" gradientUnits="userSpaceOnUse" gradientTransform="translate(837.906 661.705) rotate(119.898) scale(562.542 502.506)">
<stop stop-color="#003865"/>
<stop offset="1" stop-color="#00B5EC" stop-opacity="0"/>
</radialGradient>
<linearGradient id="paint17_linear_525_5883" x1="-9.22526" y1="1046.4" x2="255.868" y2="877.243" gradientUnits="userSpaceOnUse">
<stop stop-color="#003865" stop-opacity="0.54"/>
<stop offset="1" stop-color="#00B5EC" stop-opacity="0"/>
</linearGradient>
<radialGradient id="paint18_radial_525_5883" cx="0" cy="0" r="1" gradientUnits="userSpaceOnUse" gradientTransform="translate(500.71 326.725) rotate(-163.126) scale(464.878 415.513)">
<stop stop-color="#003865"/>
<stop offset="1" stop-color="#00B5EC" stop-opacity="0"/>
</radialGradient>
<radialGradient id="paint19_radial_525_5883" cx="0" cy="0" r="1" gradientUnits="userSpaceOnUse" gradientTransform="translate(837.906 661.705) rotate(119.898) scale(562.542 502.506)">
<stop stop-color="#003865"/>
<stop offset="1" stop-color="#00B5EC" stop-opacity="0"/>
</radialGradient>
<linearGradient id="paint20_linear_525_5883" x1="-9.22526" y1="1046.4" x2="255.868" y2="877.243" gradientUnits="userSpaceOnUse">
<stop stop-color="#003865" stop-opacity="0.54"/>
<stop offset="1" stop-color="#00B5EC" stop-opacity="0"/>
</linearGradient>
</defs>
</svg>
