<?xml version="1.0" encoding="UTF-8" standalone="no"?>
<!DOCTYPE svg PUBLIC "-//W3C//DTD SVG 1.1//EN" "http://www.w3.org/Graphics/SVG/1.1/DTD/svg11.dtd">
<svg width="100%" height="100%" viewBox="0 0 1064 1061" version="1.1" xmlns="http://www.w3.org/2000/svg" xmlns:xlink="http://www.w3.org/1999/xlink" xml:space="preserve" xmlns:serif="http://www.serif.com/" style="fill-rule:evenodd;clip-rule:evenodd;stroke-linejoin:round;stroke-miterlimit:2;">
    <g opacity="0.25">
        <g transform="matrix(4.39189,0,0,4.39189,-433.044,-74.488)">
            <path d="M149.7,48L150.6,48L150.6,50.2L151.7,50.2L151.7,51.1L152.9,51.1L152.9,53L154,53L154,57.4L156.2,57.4L156.2,66.8L162.6,66.8L162.6,78L166,78L166,175L168.9,175L168.9,202.5L181.3,202.5L181.3,231.7L192,231.7L192,254L106,254L106,231.7L116.5,231.7L116.5,202.5L128.9,202.5L128.9,175L131.8,175L131.8,78L135.2,78L135.2,66.8L141.6,66.8L141.6,57.4L143.8,57.4L143.8,53L144.9,53L144.9,51.1L146.1,51.1L146.1,50.2L147.2,50.2L147.2,48L147.9,48L147.9,44L148.4,44L148.4,32L149.2,32L149.2,44L149.7,44L149.7,48Z" style="fill:rgb(49,118,187);fill-rule:nonzero;"/>
        </g>
    </g>
</svg>
