<svg id="Layer_1" data-name="Layer 1" xmlns="http://www.w3.org/2000/svg" viewBox="0 0 956 331">
	<title>riganti-logo-white</title>
	<g id="logo">
		<path fill="#fff" d="M950.7,5A17,17,0,0,1,956,17.8a16.85,16.85,0,0,1-5.3,12.5,17.49,17.49,0,0,1-12.9,5.2,17.76,17.76,0,0,1-12.6-5A16.74,16.74,0,0,1,920,17.8,17.11,17.11,0,0,1,925.2,5,17.44,17.44,0,0,1,937.8-.1,17.8,17.8,0,0,1,950.7,5Z"></path>
		<rect fill="#fff" x="923.7" y="79" width="27.6" height="171"></rect>
		<path fill="#fff" d="M887.1,224.2v23.5H887c-6.5,3.6-15,5.3-25.6,5.3q-45,0-45-50.1v-101H787V78.5h29.4V36.9L843.8,28V78.5H887v23.3H843.9v96.3c0,11.4,2,19.6,5.9,24.5s10.4,7.3,19.4,7.3A28.79,28.79,0,0,0,887.1,224.2Z"></path>
		<path fill="#fff" d="M755,145.5V250H727.6V152.5q0-54.45-39.8-54.5c-13.7,0-25.1,5.1-34,15.4s-13.4,23.3-13.4,39V250H613V79h27.4v28.4h.7Q660.45,75,697.2,75q28,0,42.9,18.1C750,105.2,755,122.6,755,145.5Z"></path>
		<path fill="#fff" d="M560,138.8V250H532.7V223.3H532q-17.85,30.75-52.5,30.7c-17,0-30.3-4.5-40-13.5s-14.4-21-14.4-35.9c0-32,18.8-50.5,56.4-55.8l51.2-7.2Q532.7,98,497.5,98q-30.9,0-55.8,21.1V91q25.2-16.05,58.1-16Q560.1,75,560,138.8Zm-27.3,41.8V163.5l-41.2,5.7c-12.7,1.8-22.2,4.9-28.7,9.5s-9.7,12.5-9.7,23.9c0,8.4,3,15.2,8.9,20.5s13.9,7.9,23.8,7.9c13.6,0,24.8-4.8,33.6-14.3S532.7,195.1,532.7,180.6Z"></path>
		<path fill="#fff" d="M383,79V236.7q0,94.35-90.4,94.3-31.8,0-55.6-12V291.6q29,16,55.2,16.1,63.3,0,63.3-67.3V221.7h-.7q-19.65,32.85-58.9,32.8-31.95,0-51.5-22.8c-13-15.2-19.5-35.7-19.5-61.3,0-29.1,7-52.3,21-69.4,14.1-17.4,33.3-26,57.6-26q34.65,0,51.4,27.8h.7V79Zm-27.4,93.9V147.6a49.1,49.1,0,0,0-13.8-35c-9.2-9.7-20.7-14.6-34.4-14.6-17,0-30.2,6.2-39.8,18.5s-14.4,29.6-14.4,51.8c0,19.1,4.6,34.3,13.8,45.8s21.4,17.2,36.6,17.2c15.4,0,27.9-5.5,37.6-16.4C350.7,203.9,355.6,189.9,355.6,172.9Z"></path>
		<polygon fill="#3176bb" points="149.7 48 149.9 48 150.6 48 150.6 50.2 151.7 50.2 151.7 51.1 152.9 51.1 152.9 53 154 53 154 57.4 156.2 57.4 156.2 66.8 162.6 66.8 162.6 78 166 78 166 175 168.9 175 168.9 202.5 181.3 202.5 181.3 231.7 192 231.7 192 254 106 254 106 231.7 116.5 231.7 116.5 202.5 128.9 202.5 128.9 175 131.8 175 131.8 78 135.2 78 135.2 66.8 141.6 66.8 141.6 57.4 143.8 57.4 143.8 53 144.9 53 144.9 51.1 146.1 51.1 146.1 50.2 147.2 50.2 147.2 48 147.9 48 147.9 44 148.4 44 148.4 32 149.2 32 149.2 44 149.7 44 149.7 48"></polygon>
		<path fill="#fff" d="M88.8,81.6v28.5c-4.8-3.7-11.7-5.5-20.6-5.5-11.6,0-21.4,5.5-29.2,16.5s-11.7,26.1-11.7,45.2v87.3H0V82.3H27.2v35.3h.7c3.9-12,9.8-21.4,17.8-28.2S62.6,79.3,72.5,79.3C79.6,79.3,85,80.1,88.8,81.6Z"></path>
	</g>
</svg>