<svg width="90" height="24" viewBox="0 0 90 24" fill="none" xmlns="http://www.w3.org/2000/svg">
<path d="M63.6433 4.82166C59.6402 4.82166 56.3931 8.069 56.3931 12.072C56.3931 16.075 59.6402 19.3224 63.6433 19.3224C67.6464 19.3224 70.8936 16.075 70.8936 12.072C70.8936 8.069 67.6464 4.82166 63.6433 4.82166ZM63.6433 15.5533C61.7184 15.5533 60.1622 13.997 60.1622 12.072C60.1622 10.147 61.7184 8.59078 63.6433 8.59078C65.5686 8.59078 67.1248 10.147 67.1248 12.072C67.1248 13.997 65.5686 15.5533 63.6433 15.5533Z" fill="white"/>
<path d="M22.7768 6.49474C23.0377 6.21589 23.3525 5.964 23.7124 5.73911C24.0362 5.55923 24.441 5.3883 24.9358 5.22638C25.4305 5.06445 26.0152 4.98353 26.6989 4.98353C27.4455 4.98353 28.1381 5.11845 28.7948 5.3883C29.4515 5.65819 30.0092 6.05396 30.468 6.5667C30.9268 7.07948 31.2956 7.70014 31.5654 8.4198C31.8353 9.14843 31.9702 9.95801 31.9702 10.8666V19.0165H27.8953V11.6222C27.8953 10.7136 27.6614 10.012 27.1846 9.50824C26.7079 9.0045 26.0962 8.75261 25.3316 8.75261C24.5669 8.75261 23.9462 9.0045 23.4785 9.50824C23.0017 10.012 22.7678 10.7136 22.7678 11.6222V19.0165H18.6929V0H22.7678V6.49474H22.7768Z" fill="white"/>
<path d="M31.916 5.13641H36.2968L39.3195 13.7361L42.342 5.13641H46.7227L41.1363 19.0165C40.4347 20.7436 39.6701 22.012 38.8605 22.8036C38.0418 23.5952 36.9895 24 35.7031 24C35.5412 24 35.3883 23.991 35.2353 23.982C35.0824 23.973 34.9385 23.955 34.7946 23.937C34.6326 23.919 34.4797 23.8831 34.3448 23.8471V20.3748C35.1904 20.3748 35.8201 20.1949 36.2428 19.8441C36.6656 19.4933 36.9895 19.0165 37.2054 18.4138L31.916 5.13641Z" fill="white"/>
<path d="M55.5565 5.07345C55.4575 5.05548 55.3315 5.03748 55.1785 5.01048C55.0259 4.99252 54.8639 4.98352 54.6839 4.98352C54.1623 4.98352 53.6942 5.07345 53.2806 5.24437C52.867 5.4153 52.525 5.61318 52.237 5.82907C51.8954 6.07196 51.6074 6.34185 51.3648 6.64766L50.7618 5.13645H47.7393V19.0165H51.8144V11.928C51.8144 11.0195 52.0484 10.3179 52.525 9.81408C53.0016 9.31035 53.6136 9.05846 54.3779 9.05846H55.8891V5.13645C55.7905 5.11845 55.6825 5.09145 55.5565 5.07345Z" fill="white"/>
<path d="M3.01349 10.2819C2.9955 10.093 2.98651 9.90409 2.98651 9.70616C2.98651 6.045 5.964 3.0675 9.6252 3.0675C11.7391 3.0675 13.6282 4.06601 14.8426 5.60423L13.7091 6.49478C12.7556 5.28938 11.2804 4.50679 9.6252 4.50679C6.75562 4.50679 4.42579 6.83663 4.42579 9.70616C4.42579 12.5757 6.75562 14.9056 9.6252 14.9056C11.2804 14.9056 12.7556 14.123 13.7091 12.9176L17.1904 15.6522C15.4273 17.8921 12.6927 19.3314 9.6252 19.3314C4.30886 19.3314 0 15.0225 0 9.70616C0 4.38983 4.30886 0.0809937 9.6252 0.0809937C12.6927 0.0809937 15.4273 1.52027 17.1904 3.76016L16.057 4.65071C14.5547 2.74366 12.2339 1.52027 9.6252 1.52027C6.10796 1.52027 2.37481 3.92209 2.37481 7.71818C2.36582 8.80661 2.62669 9.59824 3.01349 10.2819Z" fill="white"/>
<path d="M79.7 4.98352C80.5277 4.98352 81.2833 5.11845 81.9669 5.3883C82.6505 5.65818 83.2352 6.05396 83.7298 6.56673C84.2248 7.07947 84.6024 7.70013 84.8814 8.4198C85.151 9.14842 85.286 9.95801 85.286 10.8666V19.0165H81.2113V11.6222C81.2113 10.7136 80.9773 10.012 80.5007 9.50823C80.0237 9.0045 79.412 8.75261 78.6474 8.75261C77.8828 8.75261 77.2622 9.0045 76.7945 9.50823C76.3175 10.012 76.0839 10.7136 76.0839 11.6222V19.0165H72.0088V5.13645H75.0223L75.6249 6.49473C75.9489 6.21588 76.3175 5.96403 76.7405 5.73915C77.1002 5.55922 77.5322 5.3883 78.0358 5.22637C78.5484 5.06448 79.0974 4.98352 79.7 4.98352Z" fill="white"/>
<path d="M88.5608 19.3313C87.8051 19.3313 87.1665 18.6927 87.1665 17.8741C87.1665 17.0555 87.8051 16.4168 88.5608 16.4168C89.3164 16.4168 89.955 17.0555 89.955 17.8741C89.955 18.6927 89.3164 19.3313 88.5608 19.3313ZM88.5608 19.0795C89.1544 19.0795 89.676 18.5578 89.676 17.8741C89.676 17.1904 89.1544 16.6687 88.5608 16.6687C87.9671 16.6687 87.4451 17.1904 87.4451 17.8741C87.4451 18.5578 87.9761 19.0795 88.5608 19.0795ZM88.7678 18.027L89.1544 18.6207H88.8844L88.5158 18.072H88.3358V18.6207H88.0841V17.1185H88.6058C88.8754 17.1185 89.1094 17.3434 89.1094 17.5952C89.1094 17.9371 88.7678 18.027 88.7678 18.027ZM88.6058 17.8471C88.7408 17.8471 88.8574 17.7301 88.8574 17.5952C88.8574 17.4603 88.7408 17.3434 88.6058 17.3434H88.3358V17.8471H88.6058Z" fill="white"/>
</svg>
