<svg width="124" height="138" viewBox="0 0 124 138" fill="none" xmlns="http://www.w3.org/2000/svg">
<path d="M21.65 73.1233C21.5338 71.7647 21.4598 70.385 21.4598 68.9948C21.4598 42.7492 42.8774 21.4009 69.2082 21.4009C84.4129 21.4009 97.9798 28.531 106.729 39.6107L98.5821 45.993C91.7352 37.3252 81.1374 31.7328 69.2082 31.7328C48.562 31.7328 31.8252 48.4154 31.8252 68.9948C31.8252 89.5742 48.562 106.257 69.2082 106.257C81.1374 106.257 91.7352 100.664 98.5821 91.9966L123.634 111.607C110.955 127.668 91.302 137.99 69.2188 137.99C30.9905 137.99 0 107.099 0 68.9948C0 30.8902 30.9905 0 69.2188 0C91.3126 0 110.966 10.3213 123.634 26.3825L115.467 32.7754C104.679 19.1155 87.9631 10.3213 69.2188 10.3213C43.9023 10.3213 17.0537 27.5305 17.0537 54.7556C17.0326 62.5176 18.8817 68.1838 21.65 73.1233Z" fill="white"/>
</svg>
